<svg id="Layer_1" data-name="Layer 1" xmlns="http://www.w3.org/2000/svg" viewBox="0 0 288 288"><defs><style>.cls-1,.cls-2,.cls-3{fill:#fff;}.cls-2{font-size:27px;font-family:Helvetica-BoldOblique, Helvetica;font-weight:700;font-style:oblique;}.cls-3{font-size:15px;font-family:Helvetica;}</style></defs><path class="cls-1" d="M237.91,139.18c-12.23-4.27-25.12-4.88-37.88-4-8.63,1-16.54,4.06-24.76,7.19a151.4,151.4,0,0,1-18.13,5.75c-16.13,3-33.31-1.11-47.21-9l.14-.38c15.16,6.05,32.19,9.39,48.23,5.21,13.21-3.71,25.65-10.41,39.43-12,13.67-.93,28,.67,40.36,6.84l-.18.36Z"/><path class="cls-1" d="M71.74,163.05c-4-10.55-9.42-22.09-4.84-33.46l1.16-3.06,3.41,1.4c22.9,9.07,46.9-1.56,69.18-7.87,19.14-5.89,40.36-2.8,58.42,4.68l-.14.52c-15.88-4.07-32.68-6.1-48.85-2.67-16,4-31.21,11.14-47.74,13.09-11,1.47-22.46.51-32.5-4.34l.5-.18c-2.29,4.93-2.54,10.52-1.69,15.84s2.54,10.57,3.61,15.95l-.52.1Z"/><text class="cls-2" transform="translate(73.11 171.72)">Autotracks</text><text class="cls-3" transform="translate(121.08 187.43)">Polaris</text><polygon class="cls-1" points="115 186 74 185 115 184 115 186 115 186"/><polygon class="cls-1" points="174 184 215 185 174 186 174 184 174 184"/></svg>