<svg id="Layer_1" data-name="Layer 1" xmlns="http://www.w3.org/2000/svg" viewBox="0 0 175 72"><defs><style>.cls-1,.cls-2{fill:#2e3192;}.cls-2{font-size:27px;font-family:Helvetica-BoldOblique, Helvetica;font-weight:700;font-style:oblique;}.cls-3{font-size:15px;fill:#8283be;font-family:Helvetica;}</style></defs><path class="cls-1" d="M173.91,23.18c-12.23-4.27-25.12-4.88-37.88-4-8.63,1-16.54,4.06-24.76,7.19a151.4,151.4,0,0,1-18.13,5.75c-16.13,3-33.31-1.11-47.21-9l.14-.38C61.23,28.86,78.26,32.2,94.3,28c13.21-3.71,25.65-10.41,39.43-12,13.67-.93,28,.67,40.36,6.84l-.18.36Z"/><path class="cls-1" d="M7.74,47.05C3.7,36.5-1.68,25,2.9,13.59l1.16-3.06,3.41,1.4c22.9,9.07,46.9-1.56,69.18-7.87C95.79-1.83,117,1.26,135.07,8.74l-.14.52c-15.88-4.07-32.68-6.1-48.85-2.67-16,4-31.21,11.14-47.74,13.09-11,1.47-22.46.51-32.5-4.34l.5-.18C4.05,20.09,3.8,25.68,4.65,31S7.19,41.57,8.26,47l-.52.1Z"/><text class="cls-2" transform="translate(9.11 55.72)">Autotracks</text><text class="cls-3" transform="translate(57.08 71.43)">Polaris</text><polygon class="cls-1" points="51 70 10 69 51 68 51 70 51 70"/><polygon class="cls-1" points="110 68 151 69 110 70 110 68 110 68"/></svg>